<mxfile host="app.diagrams.net" modified="2023-07-10T17:58:25.072Z" agent="Mozilla/5.0 (Macintosh; Intel Mac OS X 10_15_7) AppleWebKit/605.1.15 (KHTML, like Gecko) Version/16.3 Safari/605.1.15" etag="oPJ5-XHYaDHTwO93bv0V" version="21.6.1" type="github">
  <diagram name="Page-1" id="QFeVosU6VZyB3Q-VxHwe">
    <mxGraphModel dx="857" dy="570" grid="1" gridSize="10" guides="1" tooltips="1" connect="1" arrows="1" fold="1" page="1" pageScale="1" pageWidth="850" pageHeight="1100" math="0" shadow="0">
      <root>
        <mxCell id="0" />
        <mxCell id="1" parent="0" />
        <mxCell id="cUflrHvp2M4KVQtTYE87-36" value="" style="rounded=0;whiteSpace=wrap;html=1;fillColor=#fff2cc;dashed=1;dashPattern=12 12;strokeColor=#d6b656;strokeWidth=2;perimeterSpacing=0;fillStyle=solid;" vertex="1" parent="1">
          <mxGeometry x="390" y="170" width="120" height="230" as="geometry" />
        </mxCell>
        <mxCell id="cUflrHvp2M4KVQtTYE87-2" style="edgeStyle=orthogonalEdgeStyle;rounded=0;orthogonalLoop=1;jettySize=auto;html=1;exitX=1;exitY=0.5;exitDx=0;exitDy=0;entryX=0;entryY=0.5;entryDx=0;entryDy=0;" edge="1" parent="1" source="cUflrHvp2M4KVQtTYE87-1" target="cUflrHvp2M4KVQtTYE87-3">
          <mxGeometry relative="1" as="geometry">
            <mxPoint x="170" y="310" as="targetPoint" />
          </mxGeometry>
        </mxCell>
        <mxCell id="cUflrHvp2M4KVQtTYE87-18" value="addressed&lt;br&gt;&amp;nbsp;by" style="edgeLabel;html=1;align=center;verticalAlign=middle;resizable=0;points=[];labelBackgroundColor=none;" vertex="1" connectable="0" parent="cUflrHvp2M4KVQtTYE87-2">
          <mxGeometry x="-0.3368" y="1" relative="1" as="geometry">
            <mxPoint x="8" y="-1" as="offset" />
          </mxGeometry>
        </mxCell>
        <mxCell id="cUflrHvp2M4KVQtTYE87-1" value="Current housing problems in the US" style="rounded=0;whiteSpace=wrap;html=1;" vertex="1" parent="1">
          <mxGeometry y="250" width="120" height="60" as="geometry" />
        </mxCell>
        <mxCell id="cUflrHvp2M4KVQtTYE87-5" style="edgeStyle=orthogonalEdgeStyle;rounded=0;orthogonalLoop=1;jettySize=auto;html=1;exitX=1;exitY=0.5;exitDx=0;exitDy=0;" edge="1" parent="1" source="cUflrHvp2M4KVQtTYE87-3" target="cUflrHvp2M4KVQtTYE87-4">
          <mxGeometry relative="1" as="geometry" />
        </mxCell>
        <mxCell id="cUflrHvp2M4KVQtTYE87-8" style="edgeStyle=orthogonalEdgeStyle;rounded=0;orthogonalLoop=1;jettySize=auto;html=1;exitX=1;exitY=0.5;exitDx=0;exitDy=0;entryX=0;entryY=0.5;entryDx=0;entryDy=0;" edge="1" parent="1" source="cUflrHvp2M4KVQtTYE87-3" target="cUflrHvp2M4KVQtTYE87-7">
          <mxGeometry relative="1" as="geometry" />
        </mxCell>
        <mxCell id="cUflrHvp2M4KVQtTYE87-3" value="NIMBY, YIMBY, and their pursuits" style="rounded=0;whiteSpace=wrap;html=1;" vertex="1" parent="1">
          <mxGeometry x="180" y="250" width="120" height="60" as="geometry" />
        </mxCell>
        <mxCell id="cUflrHvp2M4KVQtTYE87-11" style="edgeStyle=orthogonalEdgeStyle;rounded=0;orthogonalLoop=1;jettySize=auto;html=1;exitX=1;exitY=0.5;exitDx=0;exitDy=0;entryX=0;entryY=0.5;entryDx=0;entryDy=0;" edge="1" parent="1" source="cUflrHvp2M4KVQtTYE87-4" target="cUflrHvp2M4KVQtTYE87-10">
          <mxGeometry relative="1" as="geometry">
            <Array as="points">
              <mxPoint x="530" y="245" />
              <mxPoint x="530" y="280" />
            </Array>
          </mxGeometry>
        </mxCell>
        <mxCell id="cUflrHvp2M4KVQtTYE87-16" style="edgeStyle=orthogonalEdgeStyle;rounded=0;orthogonalLoop=1;jettySize=auto;html=1;exitX=0.5;exitY=1;exitDx=0;exitDy=0;" edge="1" parent="1" source="cUflrHvp2M4KVQtTYE87-4" target="cUflrHvp2M4KVQtTYE87-7">
          <mxGeometry relative="1" as="geometry" />
        </mxCell>
        <mxCell id="cUflrHvp2M4KVQtTYE87-4" value="Public meetings&amp;nbsp;" style="rounded=0;whiteSpace=wrap;html=1;" vertex="1" parent="1">
          <mxGeometry x="390" y="230" width="120" height="30" as="geometry" />
        </mxCell>
        <mxCell id="cUflrHvp2M4KVQtTYE87-15" style="edgeStyle=orthogonalEdgeStyle;rounded=0;orthogonalLoop=1;jettySize=auto;html=1;exitX=0.5;exitY=0;exitDx=0;exitDy=0;entryX=0.5;entryY=1;entryDx=0;entryDy=0;" edge="1" parent="1" source="cUflrHvp2M4KVQtTYE87-6" target="cUflrHvp2M4KVQtTYE87-7">
          <mxGeometry relative="1" as="geometry" />
        </mxCell>
        <mxCell id="cUflrHvp2M4KVQtTYE87-6" value="&lt;font color=&quot;#b92d5d&quot;&gt;Intervention&lt;/font&gt;" style="rounded=0;whiteSpace=wrap;html=1;fillColor=#f8cecc;strokeColor=#b85450;" vertex="1" parent="1">
          <mxGeometry x="400" y="350" width="100" height="30" as="geometry" />
        </mxCell>
        <mxCell id="cUflrHvp2M4KVQtTYE87-17" style="edgeStyle=orthogonalEdgeStyle;rounded=0;orthogonalLoop=1;jettySize=auto;html=1;exitX=0.5;exitY=0;exitDx=0;exitDy=0;entryX=0.5;entryY=1;entryDx=0;entryDy=0;" edge="1" parent="1" source="cUflrHvp2M4KVQtTYE87-7" target="cUflrHvp2M4KVQtTYE87-4">
          <mxGeometry relative="1" as="geometry" />
        </mxCell>
        <mxCell id="cUflrHvp2M4KVQtTYE87-23" style="edgeStyle=orthogonalEdgeStyle;rounded=0;orthogonalLoop=1;jettySize=auto;html=1;exitX=1;exitY=0.5;exitDx=0;exitDy=0;entryX=0;entryY=0.5;entryDx=0;entryDy=0;" edge="1" parent="1" source="cUflrHvp2M4KVQtTYE87-7" target="cUflrHvp2M4KVQtTYE87-10">
          <mxGeometry relative="1" as="geometry">
            <Array as="points">
              <mxPoint x="530" y="315" />
              <mxPoint x="530" y="280" />
            </Array>
          </mxGeometry>
        </mxCell>
        <mxCell id="cUflrHvp2M4KVQtTYE87-7" value="Social media" style="rounded=0;whiteSpace=wrap;html=1;" vertex="1" parent="1">
          <mxGeometry x="390" y="300" width="120" height="30" as="geometry" />
        </mxCell>
        <mxCell id="cUflrHvp2M4KVQtTYE87-14" style="edgeStyle=orthogonalEdgeStyle;rounded=0;orthogonalLoop=1;jettySize=auto;html=1;exitX=0.5;exitY=1;exitDx=0;exitDy=0;entryX=0.5;entryY=0;entryDx=0;entryDy=0;" edge="1" parent="1" source="cUflrHvp2M4KVQtTYE87-21" target="cUflrHvp2M4KVQtTYE87-4">
          <mxGeometry relative="1" as="geometry">
            <mxPoint x="445" y="180" as="sourcePoint" />
          </mxGeometry>
        </mxCell>
        <mxCell id="cUflrHvp2M4KVQtTYE87-13" style="edgeStyle=orthogonalEdgeStyle;rounded=0;orthogonalLoop=1;jettySize=auto;html=1;exitX=0.5;exitY=1;exitDx=0;exitDy=0;entryX=0.5;entryY=1;entryDx=0;entryDy=0;" edge="1" parent="1" source="cUflrHvp2M4KVQtTYE87-10" target="cUflrHvp2M4KVQtTYE87-1">
          <mxGeometry relative="1" as="geometry">
            <Array as="points">
              <mxPoint x="630" y="310" />
              <mxPoint x="630" y="430" />
              <mxPoint x="60" y="430" />
            </Array>
          </mxGeometry>
        </mxCell>
        <mxCell id="cUflrHvp2M4KVQtTYE87-10" value="Changes in policy" style="rounded=0;whiteSpace=wrap;html=1;" vertex="1" parent="1">
          <mxGeometry x="585" y="250" width="120" height="60" as="geometry" />
        </mxCell>
        <mxCell id="cUflrHvp2M4KVQtTYE87-19" value="venue" style="text;html=1;align=center;verticalAlign=middle;resizable=0;points=[];autosize=1;strokeColor=none;fillColor=none;" vertex="1" parent="1">
          <mxGeometry x="290" y="257" width="60" height="30" as="geometry" />
        </mxCell>
        <mxCell id="cUflrHvp2M4KVQtTYE87-20" value="Gap: Interaction" style="text;html=1;align=center;verticalAlign=middle;resizable=0;points=[];autosize=1;strokeColor=none;fillColor=none;fontColor=#CC0000;" vertex="1" parent="1">
          <mxGeometry x="410" y="265" width="110" height="30" as="geometry" />
        </mxCell>
        <mxCell id="cUflrHvp2M4KVQtTYE87-21" value="&lt;font color=&quot;#9a244f&quot;&gt;Intervention&lt;/font&gt;" style="rounded=0;whiteSpace=wrap;html=1;fillColor=#f8cecc;strokeColor=#b85450;" vertex="1" parent="1">
          <mxGeometry x="400" y="180" width="100" height="30" as="geometry" />
        </mxCell>
        <mxCell id="cUflrHvp2M4KVQtTYE87-22" value="result" style="text;html=1;align=center;verticalAlign=middle;resizable=0;points=[];autosize=1;strokeColor=none;fillColor=none;" vertex="1" parent="1">
          <mxGeometry x="528" y="256" width="50" height="30" as="geometry" />
        </mxCell>
        <mxCell id="cUflrHvp2M4KVQtTYE87-25" value="solution?" style="text;html=1;align=center;verticalAlign=middle;resizable=0;points=[];autosize=1;strokeColor=none;fillColor=none;" vertex="1" parent="1">
          <mxGeometry x="310" y="400" width="70" height="30" as="geometry" />
        </mxCell>
        <mxCell id="cUflrHvp2M4KVQtTYE87-26" value="Who are the NIMBY and YIMBY?&lt;br&gt;What are their pursuits?" style="text;html=1;align=center;verticalAlign=middle;resizable=0;points=[];autosize=1;strokeColor=#6c8ebf;fillColor=#dae8fc;" vertex="1" parent="1">
          <mxGeometry x="140" y="320" width="200" height="40" as="geometry" />
        </mxCell>
        <mxCell id="cUflrHvp2M4KVQtTYE87-27" value="Who&#39;s discussing in public meetings?&lt;br&gt;What are they discussing?" style="text;html=1;align=center;verticalAlign=middle;resizable=0;points=[];autosize=1;strokeColor=#6c8ebf;fillColor=#dae8fc;" vertex="1" parent="1">
          <mxGeometry x="510" y="190" width="220" height="40" as="geometry" />
        </mxCell>
        <mxCell id="cUflrHvp2M4KVQtTYE87-29" value="Who&#39;s discussing on social media?&lt;br&gt;What are they discussing?" style="text;html=1;align=center;verticalAlign=middle;resizable=0;points=[];autosize=1;strokeColor=#6c8ebf;fillColor=#dae8fc;" vertex="1" parent="1">
          <mxGeometry x="510" y="330" width="210" height="40" as="geometry" />
        </mxCell>
        <mxCell id="cUflrHvp2M4KVQtTYE87-30" value="Do the changes in policy solve the housing problems?&amp;nbsp;&lt;br&gt;If not, how to introduce interventions that can help with solving the problems?&lt;br&gt;What&#39;s the mechanism and effects of the interventions?" style="text;html=1;align=center;verticalAlign=middle;resizable=0;points=[];autosize=1;strokeColor=#6c8ebf;fillColor=#dae8fc;" vertex="1" parent="1">
          <mxGeometry x="140" y="440" width="430" height="60" as="geometry" />
        </mxCell>
        <mxCell id="cUflrHvp2M4KVQtTYE87-31" value="How do the &lt;br&gt;discussions &lt;br&gt;lead to changes&lt;br&gt;&amp;nbsp;in policy?" style="text;html=1;align=center;verticalAlign=middle;resizable=0;points=[];autosize=1;strokeColor=#6c8ebf;fillColor=#dae8fc;" vertex="1" parent="1">
          <mxGeometry x="720" y="245" width="110" height="70" as="geometry" />
        </mxCell>
        <mxCell id="cUflrHvp2M4KVQtTYE87-33" value="offline" style="text;html=1;align=center;verticalAlign=middle;resizable=0;points=[];autosize=1;strokeColor=none;fillColor=none;" vertex="1" parent="1">
          <mxGeometry x="335" y="220" width="60" height="30" as="geometry" />
        </mxCell>
        <mxCell id="cUflrHvp2M4KVQtTYE87-34" value="online" style="text;html=1;align=center;verticalAlign=middle;resizable=0;points=[];autosize=1;strokeColor=none;fillColor=none;" vertex="1" parent="1">
          <mxGeometry x="335" y="310" width="60" height="30" as="geometry" />
        </mxCell>
        <mxCell id="cUflrHvp2M4KVQtTYE87-35" value="&lt;div style=&quot;text-align: left;&quot;&gt;Intervention types:&lt;/div&gt;&lt;div style=&quot;&quot;&gt;&lt;ul&gt;&lt;li style=&quot;text-align: left;&quot;&gt;&lt;span style=&quot;white-space: pre;&quot;&gt;Psychology-based&lt;/span&gt;&lt;/li&gt;&lt;ul&gt;&lt;li style=&quot;text-align: left;&quot;&gt;&lt;span style=&quot;white-space: pre;&quot;&gt;Framing effect&lt;/span&gt;&lt;/li&gt;&lt;li style=&quot;text-align: left;&quot;&gt;&lt;span style=&quot;white-space: pre;&quot;&gt;Increasing trust in developers&lt;/span&gt;&lt;/li&gt;&lt;li style=&quot;text-align: left;&quot;&gt;&lt;span style=&quot;white-space: pre;&quot;&gt;Increasing altruistic sentiment &lt;/span&gt;&lt;/li&gt;&lt;/ul&gt;&lt;li style=&quot;text-align: left;&quot;&gt;&lt;span style=&quot;white-space: pre;&quot;&gt;Compensation-based &lt;/span&gt;&lt;br&gt;&lt;/li&gt;&lt;ul&gt;&lt;li style=&quot;text-align: left;&quot;&gt;&lt;span style=&quot;white-space: pre;&quot;&gt;Compensation from other communities&lt;/span&gt;&lt;/li&gt;&lt;li style=&quot;text-align: left;&quot;&gt;&lt;span style=&quot;white-space: pre;&quot;&gt;Compensation from the government&lt;/span&gt;&lt;/li&gt;&lt;li style=&quot;text-align: left;&quot;&gt;&lt;span style=&quot;white-space: pre;&quot;&gt;Compensation from developers&lt;/span&gt;&lt;/li&gt;&lt;/ul&gt;&lt;/ul&gt;&lt;/div&gt;" style="text;html=1;align=center;verticalAlign=middle;resizable=0;points=[];autosize=1;strokeColor=#b85450;fillColor=#f8cecc;" vertex="1" parent="1">
          <mxGeometry x="295" width="310" height="160" as="geometry" />
        </mxCell>
        <mxCell id="cUflrHvp2M4KVQtTYE87-37" value="Focus of the proposed study" style="rounded=0;whiteSpace=wrap;html=1;fillColor=#fff2cc;strokeColor=#d6b656;" vertex="1" parent="1">
          <mxGeometry x="510" y="390" width="90" height="30" as="geometry" />
        </mxCell>
      </root>
    </mxGraphModel>
  </diagram>
</mxfile>
